<svg data-v-423bf9ae="" xmlns="http://www.w3.org/2000/svg" viewBox="0 0 586 90" class="iconLeft"><!----><!----><!----><g data-v-423bf9ae="" id="984b94da-2cc1-4bcc-9ee8-aebda3c0d01a" fill="white" transform="matrix(5.680473327636719,0,0,5.680473327636719,128.15003967285156,14.378698348999023)"><path d="M0.48 10.50L3.79 10.50L3.79 10.09C2.88 10.02 2.55 9.98 2.46 9.39C2.39 8.93 2.37 8.40 2.37 7.66L2.37 2.10L2.39 2.10L6.01 10.33L6.38 10.33L10.04 2.10L10.08 2.10L10.08 9.20C10.08 9.98 10.05 10.01 8.82 10.09L8.82 10.50L12.73 10.50L12.73 10.09C11.51 10.01 11.47 9.98 11.47 9.20L11.47 2.11C11.47 1.33 11.51 1.30 12.73 1.22L12.73 0.81L9.91 0.81C9.44 2.06 8.86 3.29 8.30 4.52L6.62 8.27L6.59 8.27L4.94 4.54C4.40 3.29 3.81 2.06 3.30 0.81L0.46 0.81L0.46 1.22C1.69 1.30 1.72 1.33 1.72 2.11L1.72 7.66C1.72 8.40 1.69 8.93 1.62 9.39C1.54 9.98 1.20 10.04 0.48 10.09ZM13.90 8.68C13.90 9.73 14.60 10.67 15.92 10.67C16.73 10.67 17.56 10.12 18.00 9.83C18.20 10.35 18.42 10.67 18.91 10.67C19.43 10.67 20.03 10.51 20.57 10.25L20.48 9.91C20.29 9.95 19.98 9.98 19.77 9.93C19.52 9.87 19.28 9.60 19.28 8.72L19.28 5.33C19.28 4.52 19.10 3.47 16.98 3.47C15.40 3.47 14.15 4.30 14.15 5.07C14.15 5.52 14.67 5.73 14.94 5.73C15.23 5.73 15.32 5.57 15.39 5.33C15.69 4.30 16.27 3.96 16.83 3.96C17.37 3.96 18.02 4.24 18.02 5.36L18.02 5.95C17.67 6.31 16.31 6.66 15.20 7.01C14.20 7.32 13.90 8.02 13.90 8.68ZM15.32 8.48C15.32 7.83 15.62 7.49 16.41 7.20C16.97 6.99 17.71 6.72 18.02 6.52L18.02 8.50C18.02 9.63 17.15 9.93 16.60 9.93C15.74 9.93 15.32 9.31 15.32 8.48ZM20.99 10.50L24.68 10.50L24.68 10.09C23.44 10.02 23.35 10.00 23.35 9.28L23.35 6.01C23.35 4.93 23.83 4.56 24.15 4.56C24.37 4.56 24.61 4.65 25.02 4.87C25.12 4.93 25.23 4.94 25.30 4.94C25.63 4.94 25.94 4.59 25.94 4.16C25.94 3.85 25.75 3.47 25.20 3.47C24.70 3.47 24.28 3.78 23.35 4.59L23.18 3.47L21.06 3.82L21.06 4.17L21.59 4.24C21.95 4.30 22.04 4.37 22.04 4.87L22.04 9.28C22.04 10.00 21.97 10.02 20.99 10.09ZM26.64 8.16L26.78 10.00C27.29 10.44 28.14 10.67 28.97 10.67C30.63 10.67 31.58 9.79 31.58 8.60C31.58 7.36 30.83 6.80 29.39 6.36C28.81 6.17 27.89 5.88 27.89 5.10C27.89 4.37 28.45 3.96 29.15 3.96C30.14 3.96 30.62 4.73 30.72 5.59L31.12 5.59L31.12 3.95C30.66 3.61 29.95 3.47 29.32 3.47C27.80 3.47 26.77 4.19 26.77 5.52C26.77 6.68 27.72 7.20 28.88 7.55C29.51 7.74 30.39 8.06 30.39 9.02C30.39 9.73 29.83 10.18 29.09 10.18C27.96 10.18 27.33 9.35 27.05 8.16ZM32.38 10.50L35.78 10.50L35.78 10.09C34.82 10.02 34.73 9.97 34.73 9.28L34.73 6.01C34.73 5.66 34.75 5.46 34.86 5.25C35.15 4.69 35.80 4.23 36.54 4.23C37.49 4.23 38.01 4.76 38.01 5.98L38.01 9.28C38.01 9.97 37.94 10.02 36.96 10.09L36.96 10.50L40.38 10.50L40.38 10.09C39.41 10.02 39.33 9.97 39.33 9.28L39.33 5.70C39.33 4.28 38.56 3.47 37.25 3.47C36.23 3.47 35.60 3.95 34.72 4.54L34.72 0.20L34.62 0.11L32.44 0.46L32.44 0.81L32.97 0.88C33.33 0.94 33.42 1.01 33.42 1.51L33.42 9.28C33.42 9.97 33.36 10.02 32.38 10.09ZM41.27 7.13C41.27 9.34 42.22 10.67 44.51 10.67C46.06 10.67 46.86 9.80 47.24 8.69L46.82 8.47C46.42 9.28 45.89 9.95 44.79 9.95C43.05 9.95 42.70 8.27 42.73 6.82L46.76 6.82C47.05 6.82 47.32 6.75 47.32 6.29C47.32 5.46 47.05 3.47 44.49 3.47C42.31 3.47 41.27 5.03 41.27 7.13ZM42.74 6.29C42.74 5.71 42.95 3.96 44.41 3.96C45.71 3.96 45.86 5.29 45.86 5.84C45.86 6.10 45.78 6.29 45.39 6.29ZM48.44 8.16L48.58 10.00C49.08 10.44 49.94 10.67 50.76 10.67C52.43 10.67 53.38 9.79 53.38 8.60C53.38 7.36 52.63 6.80 51.18 6.36C50.61 6.17 49.69 5.88 49.69 5.10C49.69 4.37 50.25 3.96 50.95 3.96C51.94 3.96 52.42 4.73 52.51 5.59L52.92 5.59L52.92 3.95C52.46 3.61 51.74 3.47 51.11 3.47C49.60 3.47 48.57 4.19 48.57 5.52C48.57 6.68 49.52 7.20 50.68 7.55C51.31 7.74 52.19 8.06 52.19 9.02C52.19 9.73 51.63 10.18 50.89 10.18C49.76 10.18 49.13 9.35 48.85 8.16ZM54.87 9.79C54.87 10.29 55.22 10.67 55.75 10.67C56.29 10.67 56.62 10.29 56.63 9.79C56.63 9.27 56.29 8.88 55.75 8.88C55.22 8.88 54.87 9.27 54.87 9.79ZM58.28 7.21C58.28 9.28 59.36 10.67 61.21 10.67C61.96 10.67 62.62 10.33 63.38 9.72L63.38 10.40L63.49 10.50L65.76 10.50L65.76 10.09C64.76 10.02 64.71 10.00 64.71 9.28L64.71 0.20L64.61 0.11L62.41 0.46L62.41 0.81L62.94 0.87C63.31 0.91 63.39 0.98 63.39 1.51L63.39 3.81C63 3.60 62.48 3.47 61.84 3.47C60.69 3.47 59.84 3.84 59.25 4.44C58.65 5.07 58.28 5.99 58.28 7.21ZM59.74 7.04C59.74 5.22 60.40 3.96 61.82 3.96C62.48 3.96 63.01 4.27 63.27 4.84C63.38 5.08 63.39 5.28 63.39 5.66L63.39 8.12C63.39 8.43 63.38 8.67 63.29 8.90C63.01 9.63 62.40 9.91 61.67 9.91C60.38 9.91 59.74 8.65 59.74 7.04ZM66.65 7.13C66.65 9.34 67.61 10.67 69.89 10.67C71.44 10.67 72.24 9.80 72.62 8.69L72.20 8.47C71.81 9.28 71.27 9.95 70.17 9.95C68.43 9.95 68.08 8.27 68.11 6.82L72.14 6.82C72.44 6.82 72.70 6.75 72.70 6.29C72.70 5.46 72.44 3.47 69.87 3.47C67.69 3.47 66.65 5.03 66.65 7.13ZM68.12 6.29C68.12 5.71 68.33 3.96 69.79 3.96C71.09 3.96 71.25 5.29 71.25 5.84C71.25 6.10 71.16 6.29 70.77 6.29ZM73.18 4.05C73.84 4.10 73.96 4.16 74.17 4.68C74.55 5.60 74.87 6.51 75.22 7.48L76.30 10.50L77.31 10.50L78.55 7.11C78.96 6.02 79.37 5.10 79.56 4.65C79.77 4.16 79.93 4.07 80.57 4.05L80.57 3.64L77.91 3.64L77.91 4.05L78.60 4.12C78.82 4.14 78.86 4.30 78.81 4.49C78.69 4.94 78.43 5.75 78.11 6.65L77.17 9.24L77.14 9.24L76.29 6.89C76.01 6.09 75.73 5.28 75.46 4.52C75.36 4.26 75.42 4.14 75.68 4.12L76.31 4.05L76.31 3.64L73.18 3.64Z"></path></g><!----><g data-v-423bf9ae="" id="b7c0acc3-3e73-4525-b4e9-fcc8a6b60717" transform="matrix(1.3896260261535645,0,0,1.3896260261535645,0.6158033609390259,9.499490261077881e-7)" stroke="none" fill="white"><path d="M54.605 57.978c-.693.262-.916.476-1.279.675-.308.171-.89.729-1.248.881-.945.396-3.938-.358-4.865-.538-.834-.163-1.433-.887-1.78-1.631a44.277 44.277 0 0 1-1.032-2.347c-.164-.41-1.359-3.692-1.516-3.668-4.545.751-6.94.994-6.94.994-.166.59.694 6.825.799 7.341-.012-.061 4.098-.47 4.514-.511.799-.079 1.584-.178 2.386-.229.45-.026 1.342-.259 1.72.073.368.323-.178.913-.248 1.274-.089.456.273.629.209 1.104-.097.725-.521.973-1.098 1.184-.678.247-1.18.711-1.696 1.198-.495.468-1.415.996-2.103.988-.868-.01-1.622-.226-2.385-.658-.387-.219-4.027-1.996-4.263-2.502-.153-.324-.225-.982-.299-1.355-.108-.552-.44-4.399-.601-5.735-.286-2.388.151-2.185-1.074-2.268-.781-.054-1.249-.105-1.885-.105-1.985 0-9.47-1.338-11.384-1.834-1.172-.304-2.382-.628-3.478-1.161-.584-.286-3.171-1.32-3.938-1.459-.746-.135-1.382.217-2.087.438-1.007.315-2.024.42-3.062.596-1.709.29-3.562.336-5.342.271-.197-.007-.631.053-.63-.243 0-.188.136-.373.226-.528.479-.845 1.404-1.913 1.717-2.331.728-.974 4.176-3.387 4.857-3.592.894-.271.603-.371 1.081-1.075.755-1.11 2.11-2.115 3.398-2.55-1.356.008-2.681-.188-4.033-.261a50.223 50.223 0 0 1-1.595-.107 16.069 16.069 0 0 1-2.299-.358c-.268-.064-.547-.052-.61-.354a.745.745 0 0 1 .089-.529c.385-.65 1.461-.745 2.13-.834 1.447-.188 2.998-.586 4.375-1.052.813-.277 3.845-1.114 4.528-1.287.708-.178 8.83-3.545 10.698-4.465 1.018-.501 5.776-2.334 7.038-2.903 1.032-.466 5.712-1.867 6.871-2.254 1.425-.475 2.924-.674 4.42-.745 1.78-.084 3.589.111 5.348.435 1.042.189 3.065 1.354 4.015.588.273-.221.483-.527.598-.849.309-.871 1.301-4.608 1.461-5.597.378-2.312.656-4.527 1.296-6.819.554-1.994 2.896-7.312 3.445-8.021.461-.593 1.038-1.393 1.655-1.95 1.847-1.668 4.506-1.554 6.699-.71.396.153.781.329 1.156.527.833.439 1.51 1.109 2.148 1.787.348.364.682.742 1.021 1.112.312.342 2.327 2.075 3.15 2.452 1.13.518 2.171.987 3.375 1.296.762.195 1.969.603 1.213 1.632-.754 1.028-2.482.644-3.571.644-2.276 0-4.644-.436-6.884.122-2.042.508-3.682 2.027-4.896 3.695-1.252 1.72-1.404 3.615-.881 5.63.539 2.064 1.19 4.259 1.506 6.386.399 2.702.303 5.441-.567 8.054-.804 2.42-1.946 4.779-3.507 6.769a25.728 25.728 0 0 1-1.56 1.776c-.854.903-4.772 3.688-5.72 4.309-.689.453-4.88 2.636-5.354 2.786-.86.271-1.318.498-2.131.8-.084.03.631 1.819.848 2.263a389.15 389.15 0 0 0 1.025 2.065c.227.081 7.217-.737 7.596-.711.332.022.707-.052 1.033.037.391.104.364.96.18 1.229-.127.187-.42.479-.426.713-.002.166.069.32.1.482.025.146.025.357-.02.496-.065.198-.293.49-.479.58-.418.197-.724.281-1.158.444z"></path></g><!----></svg>